<svg id="visual" viewBox="0 0 900 600" width="900" height="600" xmlns="http://www.w3.org/2000/svg" xmlns:xlink="http://www.w3.org/1999/xlink" version="1.1"><rect x="0" y="0" width="900" height="600" fill="#d2a5e9"></rect><path d="M0 377L129 400L257 368L386 367L514 437L643 393L771 373L900 397L900 601L771 601L643 601L514 601L386 601L257 601L129 601L0 601Z" fill="#a35bd9"></path><path d="M0 462L129 457L257 453L386 395L514 449L643 478L771 461L900 399L900 601L771 601L643 601L514 601L386 601L257 601L129 601L0 601Z" fill="#b275da"></path><path d="M0 479L129 441L257 448L386 452L514 489L643 473L771 483L900 510L900 601L771 601L643 601L514 601L386 601L257 601L129 601L0 601Z" fill="#bf8fdb"></path><path d="M0 481L129 513L257 506L386 539L514 530L643 531L771 509L900 485L900 601L771 601L643 601L514 601L386 601L257 601L129 601L0 601Z" fill="#caa8dc"></path><path d="M0 550L129 552L257 553L386 540L514 542L643 540L771 550L900 553L900 601L771 601L643 601L514 601L386 601L257 601L129 601L0 601Z" fill="#d4c2dc"></path></svg>